<?xml version="1.0" encoding="iso-8859-1"?>
<!-- Uploaded to: SVG Repo, www.svgrepo.com, Generator: SVG Repo Mixer Tools -->
<svg fill="#000000" height="800px" width="800px" version="1.1" id="Layer_1" xmlns="http://www.w3.org/2000/svg" xmlns:xlink="http://www.w3.org/1999/xlink" 
	 viewBox="0 0 512 512" xml:space="preserve">
<g>
	<g>
		<path d="M405.672,199.761c2.441-10.889,3.714-22.127,3.714-33.548c0-84.577-68.809-153.386-153.386-153.386
			S102.614,81.636,102.614,166.213c0,11.485,1.286,22.781,3.75,33.721C43.394,220.202,0,279.193,0,345.787
			c0,84.577,68.809,153.386,153.386,153.386c39.397,0,75.37-14.936,102.562-39.436c28.224,25.464,64.472,39.436,102.665,39.436
			c84.577,0,153.386-68.809,153.386-153.386C512,279.227,468.568,220.014,405.672,199.761z M256,28.86
			c75.736,0,137.353,61.616,137.353,137.353c0,43.824-20.84,84.661-56.044,110.516l-9.078-15.722
			c29.478-22.499,46.951-57.593,46.951-94.794c0-65.717-53.465-119.182-119.182-119.182s-119.182,53.465-119.182,119.182
			c0,36.785,17.008,71.397,45.82,93.928l-9.094,15.752c-34.522-25.894-54.897-66.3-54.897-109.68
			C118.647,90.477,180.264,28.86,256,28.86z M306.767,345.253h1.074v43.29c0,4.427,3.589,8.017,8.017,8.017h85.511
			c4.427,0,8.017-3.589,8.017-8.017v-85.511c0-4.427-3.589-8.017-8.017-8.017h-53.505l-2.493-4.317
			c16.799-12.043,30.742-27.111,41.277-44.196c20.494,5.79,38.975,17.998,52.42,34.732c14.846,18.477,22.693,40.799,22.693,64.554
			c0,56.876-46.272,103.148-103.148,103.148c-26.829,0-51.969-10.116-71.24-28.562c12.347-22.093,19.398-47.529,19.398-74.586
			C306.772,345.61,306.767,345.43,306.767,345.253z M356.895,311.048h36.458v69.478h-69.478v-35.273h0.534
			c5.493,0,10.357-2.698,13.372-6.827l12.012-6.935C356.992,327.334,359.873,318.557,356.895,311.048z M256,285.395
			c8.982,0,17.892-1.017,26.574-2.993l7.282,12.613h-69.341l7.472-12.941C237.12,284.273,246.521,285.395,256,285.395z
			 M236.41,267.482l18.775-32.519l18.934,32.796C261.691,269.946,248.803,269.85,236.41,267.482z M253.909,200.687
			c-0.148-0.255-0.06-0.583,0.196-0.731l14.811-8.551c0.047-0.027,0.193-0.111,0.406-0.053c0.214,0.058,0.296,0.201,0.324,0.249
			l60.258,104.371c-1.722-0.608-3.567-0.957-5.494-0.957h-16.04L253.909,200.687z M249.471,177.52
			c-7.913-4.568-18.064-1.847-22.632,6.064l-0.95,1.646l-19.018-19.017L256,117.084l49.128,49.128l-20.05,20.05l-1.547-2.679
			c-2.213-3.833-5.786-6.575-10.06-7.721c-4.276-1.145-8.739-0.557-12.572,1.656l-5.713,3.299L249.471,177.52z M293.378,200.638
			l28.756-28.756c3.131-3.131,3.131-8.207,0-11.337l-60.465-60.465c-3.131-3.131-8.207-3.131-11.337,0l-60.465,60.465
			c-3.131,3.131-3.131,8.207,0,11.337l27.724,27.724l-26.839,46.486c-23.867-19.521-37.901-48.802-37.901-79.878
			c0-56.876,46.272-103.148,103.148-103.148s103.148,46.272,103.148,103.148c0,31.505-14.478,61.269-39.007,80.781L293.378,200.638z
			 M238.708,195.092c-1.481,4.364-1.165,9.315,1.315,13.611l5.905,10.227l-61.794,107.03c-0.148,0.254-0.474,0.343-0.73,0.196
			l-14.811-8.551c-0.255-0.148-0.343-0.476-0.197-0.731L238.708,195.092z M175.388,340.042c0.094,0.055,0.19,0.099,0.284,0.152
			c3.109,3.234,7.358,5.059,11.919,5.059h0.534v35.273h-69.478v-69.478h34.828c-2.979,7.509-0.099,16.286,7.101,20.443
			L175.388,340.042z M162.505,295.015H110.63c-4.427,0-8.017,3.589-8.017,8.017v85.511c0,4.427,3.589,8.017,8.017,8.017h85.511
			c4.427,0,8.017-3.589,8.017-8.017v-43.29h52.367c0.001,0.177,0.009,0.357,0.009,0.534c0,56.876-46.272,103.148-103.148,103.148
			S50.238,402.663,50.238,345.787c0-23.795,7.88-46.14,22.787-64.62c13.445-16.666,31.898-28.816,52.362-34.595
			c10.289,16.663,23.829,31.396,40.097,43.284L162.505,295.015z M200.767,329.219l10.491-18.171h113.151
			c0.295,0,0.534,0.239,0.534,0.534v17.102c0,0.295-0.239,0.534-0.534,0.534H200.767z M153.386,483.14
			c-75.736,0-137.353-61.616-137.353-137.353c0-59.427,38.601-112.091,94.683-130.406c1.945,5.741,4.227,11.352,6.833,16.804
			c-22.252,7.034-42.245,20.62-57.004,38.916c-16.987,21.056-26.341,47.581-26.341,74.686c0,65.717,53.465,119.182,119.182,119.182
			s119.182-53.465,119.182-119.182c0-0.177-0.008-0.357-0.009-0.534h18.174c0.001,0.177,0.005,0.357,0.005,0.534
			C290.739,421.523,229.123,483.14,153.386,483.14z M358.614,483.14c-33.92,0-66.127-12.305-91.309-34.754
			c4.06-4.503,7.858-9.246,11.369-14.207c21.938,19.908,50.031,30.789,79.94,30.789c65.717,0,119.182-53.465,119.182-119.182
			c0-27.055-9.314-53.546-26.227-74.597c-14.765-18.375-34.799-32.02-57.096-39.072c2.619-5.488,4.912-11.133,6.862-16.91
			c56.007,18.309,94.632,71.177,94.632,130.579C495.967,421.523,434.35,483.14,358.614,483.14z"/>
	</g>
</g>
</svg>