<?xml version="1.0" encoding="iso-8859-1"?>
<!-- Uploaded to: SVG Repo, www.svgrepo.com, Generator: SVG Repo Mixer Tools -->
<svg height="800px" width="800px" version="1.1" id="Layer_1" xmlns="http://www.w3.org/2000/svg" xmlns:xlink="http://www.w3.org/1999/xlink" 
	 viewBox="0 0 512 512" xml:space="preserve">
<path style="fill:#FFCF65;" d="M461.406,242.995c-56.77-56.77-148.813-56.77-205.583,0s-56.77,148.813,0,205.584
	s148.814,56.77,205.583,0S518.176,299.766,461.406,242.995z M316.288,388.113v-84.652h84.652v84.652L316.288,388.113
	L316.288,388.113z"/>
<path style="fill:#C8A564;" d="M437.219,267.182c-43.412-43.412-113.799-43.412-157.211,0s-43.412,113.799,0,157.211
	s113.799,43.412,157.211,0S480.632,310.594,437.219,267.182z M316.288,388.113v-84.652h84.652v84.652L316.288,388.113
	L316.288,388.113z"/>
<path style="fill:#FFCF65;" d="M256.177,242.995c-56.77-56.77-148.813-56.77-205.583,0s-56.77,148.813,0,205.584
	s148.813,56.77,205.583,0S312.949,299.766,256.177,242.995z M111.06,388.113v-84.652h84.652v84.652L111.06,388.113L111.06,388.113z"
	/>
<path style="fill:#C8A564;" d="M231.992,267.182c-43.412-43.412-113.799-43.412-157.211,0s-43.412,113.799,0,157.211
	s113.799,43.412,157.211,0S275.405,310.594,231.992,267.182z M111.06,388.113v-84.652h84.652v84.652L111.06,388.113L111.06,388.113z
	"/>
<path style="fill:#FFCF65;" d="M256,20.843c-80.286,0-145.37,65.084-145.37,145.37s65.084,145.37,145.37,145.37
	s145.37-65.084,145.37-145.37S336.286,20.843,256,20.843z M256,226.071l-59.858-59.858L256,106.355l59.858,59.858L256,226.071z"/>
<path style="fill:#C8A564;" d="M256,55.048c-61.395,0-111.165,49.771-111.165,111.165S194.606,277.378,256,277.378
	s111.165-49.771,111.165-111.165S317.395,55.048,256,55.048z M256,226.071l-59.858-59.858L256,106.355l59.858,59.858L256,226.071z"
	/>
<g>
	<path style="fill:#FF4B4B;" d="M324.409,337.236H187.591c-4.722,0-8.551-3.829-8.551-8.551v-17.102
		c0-4.722,3.829-8.551,8.551-8.551h136.818c4.722,0,8.551,3.829,8.551,8.551v17.102C332.96,333.407,329.132,337.236,324.409,337.236
		z"/>
	<path style="fill:#FF4B4B;" d="M246.967,204.694l72.328,125.274c2.361,4.09,7.591,5.491,11.681,3.13l14.811-8.551
		c4.09-2.361,5.491-7.591,3.13-11.681l-72.328-125.274c-2.361-4.09-7.591-5.491-11.681-3.13l-14.811,8.551
		C246.006,195.374,244.605,200.605,246.967,204.694z"/>
	<path style="fill:#FF4B4B;" d="M263.404,204.694l-72.328,125.274c-2.361,4.09-7.591,5.491-11.681,3.13l-14.811-8.551
		c-4.09-2.361-5.491-7.591-3.13-11.681l72.328-125.274c2.361-4.09,7.591-5.491,11.681-3.13l14.811,8.551
		C264.364,195.374,265.765,200.605,263.404,204.694z"/>
</g>
<g>
	<path style="fill:#C83741;" d="M213.244,337.236l19.749-34.205H206.63l-15.552,26.938c-1.583,2.743-4.458,4.277-7.414,4.277
		c-0.948,0-1.891-0.221-2.815-0.547c1.558,2.093,3.932,3.537,6.743,3.537H213.244z"/>
	<path style="fill:#C83741;" d="M328.426,277.378H288.93l14.808,25.651l0.002,0.002h20.668c4.722,0,8.551,3.829,8.551,8.551v17.102
		c0,1.413-0.425,2.69-1.034,3.864l0,0l13.858-8.001c4.091-2.361,5.493-7.591,3.131-11.681L328.426,277.378z"/>
	<path style="fill:#C83741;" d="M240.764,243.908l14.42-24.978l0,0l-8.218-14.236c-2.361-4.091-0.96-9.32,3.13-11.681l5.09-2.938
		l0,0l-9.723-5.613c-4.09-2.361-9.32-0.96-11.682,3.13l-12.842,22.242L240.764,243.908z"/>
</g>
<path d="M405.672,199.761c2.441-10.889,3.714-22.127,3.714-33.548c0-84.577-68.809-153.386-153.386-153.386
	S102.614,81.636,102.614,166.213c0,11.485,1.286,22.781,3.75,33.721C43.394,220.202,0,279.193,0,345.787
	c0,84.577,68.809,153.386,153.386,153.386c39.397,0,75.37-14.936,102.562-39.436c28.224,25.464,64.472,39.436,102.665,39.436
	c84.577,0,153.386-68.809,153.386-153.386C512,279.227,468.568,220.014,405.672,199.761z M256.534,345.787
	c0,56.876-46.272,103.148-103.148,103.148S50.238,402.663,50.238,345.787c0-23.795,7.88-46.14,22.787-64.62
	c13.445-16.666,31.898-28.816,52.362-34.595c10.289,16.663,23.829,31.396,40.097,43.284l-2.979,5.159H110.63
	c-4.427,0-8.017,3.589-8.017,8.017v85.512c0,4.427,3.589,8.017,8.017,8.017h85.511c4.427,0,8.017-3.589,8.017-8.017v-43.29h52.367
	C256.527,345.43,256.534,345.61,256.534,345.787z M152.852,166.213c0-56.876,46.272-103.148,103.148-103.148
	s103.148,46.272,103.148,103.148c0,31.505-14.478,61.269-39.007,80.781l-26.763-46.356l28.756-28.756
	c3.131-3.131,3.131-8.207,0-11.337l-60.465-60.465c-3.131-3.131-8.207-3.131-11.337,0l-60.465,60.465
	c-3.131,3.131-3.131,8.207,0,11.337l27.724,27.724l-26.839,46.486C166.885,226.57,152.852,197.289,152.852,166.213z
	 M323.875,345.253h0.534c5.493,0,10.357-2.698,13.372-6.827l12.012-6.935c7.199-4.157,10.08-12.934,7.102-20.443h36.458v69.478
	h-69.478V345.253z M329.903,295.971c-1.722-0.608-3.567-0.957-5.494-0.957h-16.04l-54.46-94.328
	c-0.148-0.255-0.06-0.583,0.196-0.731l14.811-8.551c0.047-0.027,0.193-0.111,0.406-0.053c0.214,0.058,0.296,0.201,0.324,0.249
	L329.903,295.971z M238.709,195.092c-1.481,4.364-1.165,9.315,1.315,13.611l5.905,10.227l-61.794,107.03
	c-0.148,0.254-0.474,0.343-0.73,0.196l-14.811-8.551c-0.255-0.147-0.343-0.476-0.197-0.731L238.709,195.092z M283.531,183.585
	c-2.213-3.833-5.786-6.575-10.06-7.721c-4.276-1.145-8.739-0.557-12.572,1.656l-5.713,3.299l-5.714-3.299
	c-7.913-4.568-18.064-1.847-22.632,6.064l-0.95,1.646l-19.018-19.017L256,117.084l49.129,49.128l-20.05,20.05L283.531,183.585z
	 M274.12,267.759c-12.429,2.187-25.317,2.091-37.709-0.277l18.775-32.519L274.12,267.759z M160.577,331.491l14.812,8.551
	c0.094,0.055,0.19,0.099,0.284,0.152c3.109,3.234,7.358,5.059,11.919,5.059h0.534v35.273h-69.478v-69.478h34.828
	C150.497,318.557,153.377,327.334,160.577,331.491z M227.986,282.074c9.134,2.2,18.535,3.321,28.014,3.321
	c8.982,0,17.892-1.017,26.574-2.993l7.282,12.613h-69.341L227.986,282.074z M200.767,329.219l10.491-18.171h113.151
	c0.295,0,0.534,0.239,0.534,0.534v17.102c0,0.295-0.239,0.534-0.534,0.534H200.767z M307.841,345.253v43.29
	c0,4.427,3.589,8.017,8.017,8.017h85.512c4.427,0,8.017-3.589,8.017-8.017v-85.512c0-4.427-3.589-8.017-8.017-8.017h-53.505
	l-2.493-4.317c16.799-12.043,30.742-27.111,41.277-44.196c20.494,5.79,38.975,17.998,52.42,34.732
	c14.846,18.477,22.693,40.799,22.693,64.554c0,56.876-46.272,103.148-103.148,103.148c-26.829,0-51.969-10.116-71.24-28.562
	c12.347-22.093,19.398-47.529,19.398-74.586c0-0.177-0.005-0.357-0.005-0.534H307.841z M256,28.86
	c75.736,0,137.353,61.616,137.353,137.353c0,43.824-20.84,84.661-56.044,110.516l-9.078-15.722
	c29.478-22.499,46.951-57.593,46.951-94.794c0-65.717-53.465-119.182-119.182-119.182s-119.182,53.465-119.182,119.182
	c0,36.785,17.008,71.397,45.82,93.928l-9.094,15.752c-34.522-25.894-54.897-66.3-54.897-109.68
	C118.647,90.476,180.264,28.86,256,28.86z M16.033,345.787c0-59.427,38.601-112.091,94.683-130.406
	c1.945,5.741,4.227,11.352,6.833,16.804c-22.252,7.034-42.245,20.62-57.004,38.916c-16.987,21.056-26.341,47.581-26.341,74.686
	c0,65.717,53.465,119.182,119.182,119.182s119.182-53.465,119.182-119.182c0-0.177-0.007-0.357-0.009-0.534h18.174
	c0.001,0.177,0.005,0.357,0.005,0.534c0,75.736-61.616,137.353-137.353,137.353S16.033,421.524,16.033,345.787z M358.614,483.14
	c-33.92,0-66.127-12.305-91.309-34.754c4.06-4.503,7.858-9.246,11.369-14.207c21.938,19.908,50.031,30.789,79.94,30.789
	c65.717,0,119.182-53.465,119.182-119.182c0-27.055-9.314-53.546-26.227-74.597c-14.765-18.375-34.799-32.02-57.096-39.072
	c2.619-5.488,4.912-11.133,6.862-16.91c56.007,18.309,94.632,71.177,94.632,130.579C495.967,421.524,434.35,483.14,358.614,483.14z"
	/>
</svg>